<svg width="36" height="36" viewBox="0 0 36 36" fill="none" xmlns="http://www.w3.org/2000/svg">
<g clip-path="url(#clip0_17014_477)">
<path d="M16.2541 36C12.8201 35.9876 9.27453 35.6061 5.87411 34.3237C3.92697 33.59 2.13737 32.5943 0.630104 31.1251C0.140663 30.648 -0.0806031 30.1789 0.0256046 29.4602C0.273423 27.7937 0.606207 26.159 1.17973 24.5685C2.10551 21.9991 3.77916 20.1892 6.38568 19.2891C6.8999 19.1112 7.41678 18.9413 7.93631 18.7784C8.20183 18.6952 8.40982 18.7403 8.64082 18.9616C10.2357 20.4883 12.189 21.2991 14.3274 21.7062C17.1392 22.2408 19.8705 22.0354 22.4823 20.7831C23.6073 20.2432 24.6216 19.5431 25.5341 18.6925C25.6341 18.5996 25.8182 18.5067 25.935 18.5341C27.4192 18.8864 28.8398 19.4006 30.1143 20.2644C30.9719 20.8459 31.5569 21.6407 31.9702 22.578C32.873 24.6243 33.4102 26.7803 33.8572 28.9602C33.8961 29.1522 33.8271 29.4018 33.7289 29.5806C32.9376 31.018 31.726 32.0402 30.3559 32.8863C28.0892 34.2865 25.581 35.0176 22.9815 35.4689C20.8122 35.8451 18.6226 35.9885 16.2541 36Z" fill="#323232"/>
<path d="M17.0041 18.9413C11.7778 18.9413 7.57901 14.7275 7.57813 9.48258C7.57724 4.18282 11.791 -0.00265393 17.1244 1.26261e-06C22.2622 0.00265646 26.4185 4.29787 26.4158 9.60207C26.4132 14.7292 22.1684 18.9413 17.0041 18.9413Z" fill="#323232"/>
</g>
<defs>
</defs>
</svg>
